<svg width="8" height="8" viewBox="0 0 8 8" fill="none" xmlns="http://www.w3.org/2000/svg">
<path d="M6.75002 4.02736C6.84258 4.65154 6.73597 5.28902 6.44534 5.84912C6.15472 6.40922 5.69488 6.86342 5.13124 7.14711C4.5676 7.43081 3.92886 7.52956 3.30586 7.42931C2.68287 7.32906 2.10734 7.03492 1.66115 6.58873C1.21496 6.14254 0.920824 5.56702 0.820575 4.94402C0.720327 4.32102 0.819073 3.68228 1.10277 3.11864C1.38647 2.555 1.84066 2.09517 2.40076 1.80454C2.96086 1.51392 3.59834 1.4073 4.22252 1.49986C4.85922 1.59427 5.44866 1.89096 5.90379 2.34609C6.35893 2.80122 6.65561 3.39067 6.75002 4.02736Z" stroke="white" stroke-linecap="round" stroke-linejoin="round"/>
</svg>
